<?xml version="1.0" encoding="UTF-8" standalone="no"?>
<!DOCTYPE svg PUBLIC "-//W3C//DTD SVG 1.1//EN" "http://www.w3.org/Graphics/SVG/1.1/DTD/svg11.dtd">
<svg width="100%" height="100%" viewBox="0 0 1067 324" version="1.1" xmlns="http://www.w3.org/2000/svg" xmlns:xlink="http://www.w3.org/1999/xlink" xml:space="preserve" xmlns:serif="http://www.serif.com/" style="fill-rule:evenodd;clip-rule:evenodd;stroke-linejoin:round;stroke-miterlimit:2;">
    <g transform="matrix(1,0,0,1,-647.039012,-1592.302406)">
        <g transform="matrix(7.08041,0,0,7.08041,-6972.709199,-10396.509937)">
            <g transform="matrix(-0.059534,0,0.027041,0.046809,1071.995945,1644.824353)">
                <rect x="178.755" y="1274.149" width="127.915" height="479.788" style="fill:rgb(255,165,46);"/>
            </g>
            <g transform="matrix(0.059534,0,-0.025052,0.070214,1109.4707,1615.003436)">
                <rect x="178.755" y="1274.149" width="127.915" height="479.788" style="fill:rgb(255,165,46);"/>
            </g>
            <g transform="matrix(0.059534,0,-0.025052,0.070214,1134.752825,1603.774204)">
                <rect x="178.755" y="1274.149" width="127.915" height="479.788" style="fill:rgb(255,165,46);"/>
            </g>
        </g>
        <g transform="matrix(6.696748,0,0,6.696748,-6486.765921,-8685.935813)">
            <path d="M1118.725,1556.533L1124.125,1556.533L1124.125,1560.333L1124.225,1560.433C1125.092,1559 1126.225,1557.875 1127.625,1557.058C1129.025,1556.241 1130.575,1555.833 1132.275,1555.833C1135.108,1555.833 1137.342,1556.566 1138.975,1558.033C1140.608,1559.5 1141.425,1561.7 1141.425,1564.633L1141.425,1582.383L1135.725,1582.383L1135.725,1566.133C1135.658,1564.1 1135.225,1562.625 1134.425,1561.708C1133.625,1560.791 1132.375,1560.333 1130.675,1560.333C1129.708,1560.333 1128.842,1560.508 1128.075,1560.858C1127.308,1561.208 1126.658,1561.691 1126.125,1562.308C1125.592,1562.925 1125.175,1563.65 1124.875,1564.483C1124.575,1565.316 1124.425,1566.2 1124.425,1567.133L1124.425,1582.383L1118.725,1582.383L1118.725,1556.533Z" style="fill-rule:nonzero;"/>
            <path d="M1165.175,1567.183C1165.108,1566.283 1164.917,1565.416 1164.6,1564.583C1164.283,1563.75 1163.85,1563.025 1163.3,1562.408C1162.75,1561.791 1162.083,1561.291 1161.3,1560.908C1160.517,1560.525 1159.642,1560.333 1158.675,1560.333C1157.675,1560.333 1156.767,1560.508 1155.95,1560.858C1155.133,1561.208 1154.433,1561.691 1153.85,1562.308C1153.267,1562.925 1152.8,1563.65 1152.45,1564.483C1152.1,1565.316 1151.908,1566.216 1151.875,1567.183L1165.175,1567.183ZM1151.875,1570.933C1151.875,1571.933 1152.017,1572.9 1152.3,1573.833C1152.583,1574.766 1153.008,1575.583 1153.575,1576.283C1154.142,1576.983 1154.858,1577.541 1155.725,1577.958C1156.592,1578.375 1157.625,1578.583 1158.825,1578.583C1160.492,1578.583 1161.833,1578.225 1162.85,1577.508C1163.867,1576.791 1164.625,1575.716 1165.125,1574.283L1170.525,1574.283C1170.225,1575.683 1169.708,1576.933 1168.975,1578.033C1168.242,1579.133 1167.358,1580.058 1166.325,1580.808C1165.292,1581.558 1164.133,1582.125 1162.85,1582.508C1161.567,1582.891 1160.225,1583.083 1158.825,1583.083C1156.792,1583.083 1154.992,1582.75 1153.425,1582.083C1151.858,1581.416 1150.533,1580.483 1149.45,1579.283C1148.367,1578.083 1147.55,1576.65 1147,1574.983C1146.45,1573.316 1146.175,1571.483 1146.175,1569.483C1146.175,1567.65 1146.467,1565.908 1147.05,1564.258C1147.633,1562.608 1148.467,1561.158 1149.55,1559.908C1150.633,1558.658 1151.942,1557.666 1153.475,1556.933C1155.008,1556.2 1156.742,1555.833 1158.675,1555.833C1160.708,1555.833 1162.533,1556.258 1164.15,1557.108C1165.767,1557.958 1167.108,1559.083 1168.175,1560.483C1169.242,1561.883 1170.017,1563.491 1170.5,1565.308C1170.983,1567.125 1171.108,1569 1170.875,1570.933L1151.875,1570.933Z" style="fill-rule:nonzero;"/>
            <path d="M1175.225,1556.533L1180.625,1556.533L1180.625,1560.133L1180.775,1560.133C1181.208,1559.5 1181.675,1558.916 1182.175,1558.383C1182.675,1557.85 1183.233,1557.4 1183.85,1557.033C1184.467,1556.666 1185.175,1556.375 1185.975,1556.158C1186.775,1555.941 1187.692,1555.833 1188.725,1555.833C1190.292,1555.833 1191.75,1556.183 1193.1,1556.883C1194.45,1557.583 1195.408,1558.666 1195.975,1560.133C1196.942,1558.8 1198.058,1557.75 1199.325,1556.983C1200.592,1556.216 1202.175,1555.833 1204.075,1555.833C1206.808,1555.833 1208.933,1556.5 1210.45,1557.833C1211.967,1559.166 1212.725,1561.4 1212.725,1564.533L1212.725,1582.383L1207.025,1582.383L1207.025,1567.283C1207.025,1566.25 1206.992,1565.308 1206.925,1564.458C1206.858,1563.608 1206.667,1562.875 1206.35,1562.258C1206.033,1561.641 1205.558,1561.166 1204.925,1560.833C1204.292,1560.5 1203.425,1560.333 1202.325,1560.333C1200.392,1560.333 1198.992,1560.933 1198.125,1562.133C1197.258,1563.333 1196.825,1565.033 1196.825,1567.233L1196.825,1582.383L1191.125,1582.383L1191.125,1565.783C1191.125,1563.983 1190.8,1562.625 1190.15,1561.708C1189.5,1560.791 1188.308,1560.333 1186.575,1560.333C1185.842,1560.333 1185.133,1560.483 1184.45,1560.783C1183.767,1561.083 1183.167,1561.516 1182.65,1562.083C1182.133,1562.65 1181.717,1563.35 1181.4,1564.183C1181.083,1565.016 1180.925,1565.966 1180.925,1567.033L1180.925,1582.383L1175.225,1582.383L1175.225,1556.533Z" style="fill-rule:nonzero;"/>
            <path d="M1218.875,1546.683L1224.575,1546.683L1224.575,1552.083L1218.875,1552.083L1218.875,1546.683ZM1218.875,1556.533L1224.575,1556.533L1224.575,1582.383L1218.875,1582.383L1218.875,1556.533Z" style="fill-rule:nonzero;"/>
        </g>
    </g>
</svg>
